<svg width="26" height="26" viewBox="0 0 26 26" fill="none" xmlns="http://www.w3.org/2000/svg">
<path d="M25.9935 25.9999V25.9988H26V16.4633C26 11.7985 24.9958 8.20508 19.5422 8.20508C16.9206 8.20508 15.1612 9.64375 14.443 11.0077H14.3672V8.64058H9.19641V25.9988H14.5806V17.4037C14.5806 15.1406 15.0096 12.9522 17.8122 12.9522C20.5736 12.9522 20.6147 15.5349 20.6147 17.5488V25.9999H25.9935Z" fill="white"/>
<path d="M0.428955 8.64209H5.81962V26.0003H0.428955V8.64209Z" fill="white"/>
<path d="M3.12217 0C1.39858 0 0 1.39858 0 3.12217C0 4.84575 1.39858 6.27358 3.12217 6.27358C4.84575 6.27358 6.24433 4.84575 6.24433 3.12217C6.24325 1.39858 4.84467 0 3.12217 0V0Z" fill="white"/>
</svg>
