<svg width="27" height="22" viewBox="0 0 27 22" fill="none" xmlns="http://www.w3.org/2000/svg">
<path d="M27 2.50087C25.9959 2.925 24.9261 3.20612 23.8106 3.34262C24.9581 2.68287 25.8339 1.64612 26.2457 0.3965C25.1758 1.01075 23.9946 1.44463 22.7357 1.68675C21.7198 0.645125 20.2719 0 18.6924 0C15.6279 0 13.1608 2.39525 13.1608 5.33162C13.1608 5.75413 13.1979 6.16037 13.2891 6.54712C8.68725 6.331 4.61531 4.20713 1.87987 0.97175C1.40231 1.76963 1.12219 2.68288 1.12219 3.666C1.12219 5.512 2.10938 7.14837 3.58087 8.09575C2.69156 8.0795 1.81912 7.83087 1.08 7.43925C1.08 7.4555 1.08 7.47662 1.08 7.49775C1.08 10.088 2.99869 12.2395 5.51475 12.7351C5.06419 12.8538 4.57312 12.9106 4.0635 12.9106C3.70913 12.9106 3.35137 12.8911 3.01556 12.8196C3.73275 14.9305 5.76788 16.4824 8.18775 16.5327C6.3045 17.9514 3.91331 18.8061 1.32469 18.8061C0.87075 18.8061 0.435375 18.7866 0 18.733C2.45194 20.2556 5.35781 21.125 8.4915 21.125C18.6772 21.125 24.246 13 24.246 5.95725C24.246 5.72162 24.2376 5.49413 24.2257 5.26825C25.3243 4.5175 26.2474 3.57987 27 2.50087Z" fill="white"/>
</svg>
